<svg width="108" height="85" viewBox="0 0 108 85" fill="none" xmlns="http://www.w3.org/2000/svg">
<g clip-path="url(#clip0_397_2)">
<rect width="108" height="85" fill="black"/>
<path d="M57.5156 72.5V53.4687H57.0469C56.6406 54.125 56.0625 54.9531 55.3125 55.9531C54.5625 56.9375 53.4922 57.8203 52.1016 58.6016C50.7109 59.3672 48.8594 59.75 46.5469 59.75C43.5469 59.75 40.8984 58.9922 38.6016 57.4766C36.3047 55.9453 34.5078 53.7891 33.2109 51.0078C31.9141 48.2109 31.2656 44.9062 31.2656 41.0938C31.2656 37.3125 31.9141 34.0312 33.2109 31.25C34.5078 28.4687 36.3125 26.3203 38.625 24.8047C40.9375 23.2891 43.6094 22.5313 46.6406 22.5313C48.9844 22.5313 50.8359 22.9219 52.1953 23.7031C53.5703 24.4688 54.6172 25.3437 55.3359 26.3281C56.0703 27.2969 56.6406 28.0937 57.0469 28.7187H57.7031V23H63.0469V72.5H57.5156ZM47.2969 54.7813C49.5156 54.7813 51.3906 54.2031 52.9219 53.0469C54.4531 51.875 55.6172 50.2578 56.4141 48.1953C57.2109 46.1172 57.6094 43.7187 57.6094 41C57.6094 38.3125 57.2188 35.9609 56.4375 33.9453C55.6563 31.9141 54.5 30.3359 52.9688 29.2109C51.4375 28.0703 49.5469 27.5 47.2969 27.5C44.9531 27.5 43 28.1016 41.4375 29.3047C39.8906 30.4922 38.7266 32.1094 37.9453 34.1562C37.1797 36.1875 36.7969 38.4687 36.7969 41C36.7969 43.5625 37.1875 45.8906 37.9688 47.9844C38.7656 50.0625 39.9375 51.7187 41.4844 52.9531C43.0469 54.1719 44.9844 54.7813 47.2969 54.7813Z" fill="white"/>
<path d="M57.6191 55V50.7812C57.6191 49.5 57.8457 48.1406 58.2988 46.7031C58.7676 45.25 59.4395 43.8516 60.3145 42.5078C61.2051 41.1484 62.2754 39.9687 63.5254 38.9687L66.5254 41.4062C65.541 42.8125 64.6816 44.2812 63.9473 45.8125C63.2285 47.3281 62.8691 48.9531 62.8691 50.6875V55H57.6191ZM69.6191 55V50.7812C69.6191 49.5 69.8457 48.1406 70.2988 46.7031C70.7676 45.25 71.4395 43.8516 72.3145 42.5078C73.2051 41.1484 74.2754 39.9687 75.5254 38.9687L78.5254 41.4062C77.541 42.8125 76.6816 44.2812 75.9473 45.8125C75.2285 47.3281 74.8691 48.9531 74.8691 50.6875V55H69.6191Z" fill="white"/>
</g>
<defs>
<clipPath id="clip0_397_2">
<rect width="108" height="85" fill="white"/>
</clipPath>
</defs>
</svg>
